<svg class="w-4 h-4"
	xmlns="http://www.w3.org/2000/svg" viewBox="0 0 50 50" style="enable-background:new 0 0 50 50;" xml:space="preserve">
	<path d="M5.4,43.1v0.6c0,0.3,0.2,0.6,0.5,0.8l6.5,3.4C12.6,48,12.8,48,13,48l27.2-6.5c0.4-0.1,0.7-0.5,0.7-0.9v-0.5
	c0-0.4-0.3-0.8-0.6-0.9l-6.6-2c-0.1,0-0.3,0-0.4,0l-27.2,5C5.7,42.3,5.4,42.7,5.4,43.1z"/>
	<g>
		<path d="M20,43.7c-0.3,0-0.5,0-0.8-0.1c-1-0.4-1.5-1.6-1.1-2.6L33.6,3c0.4-1,1.6-1.5,2.6-1.1c1,0.4,1.5,1.6,1.1,2.6L21.9,42.5
		C21.5,43.2,20.8,43.7,20,43.7z"/>
	</g>
	<g>
		<path d="M35.7,25.6c-0.4,0-0.8,0-1.2-0.1c-2.7-0.5-6.8-1-6.8-1c-0.8-0.1-1.4-0.8-1.3-1.7c0.1-0.8,0.8-1.4,1.7-1.3
		c0.2,0,4.2,0.5,7,1c1.9,0.3,2.4-0.5,2.9-2.3c0.4-1.3,1.5-5.4,2-7.6c0.3-1.5-0.1-1.6-0.8-1.8c-2-0.7-5.5-1.2-5.5-1.3
		c-0.8-0.1-1.4-0.9-1.2-1.7C32.5,7,33.2,6.5,34,6.6c0.2,0,3.7,0.6,5.9,1.4c1.7,0.5,3.6,1.9,2.8,5.4c-0.5,2.1-1.6,6.3-2,7.7
		C40.4,22.2,39.4,25.6,35.7,25.6z"/>
	</g>
</svg>
