<?xml version="1.0" encoding="utf-8"?>
<!-- Generator: Adobe Illustrator 27.6.1, SVG Export Plug-In . SVG Version: 6.00 Build 0)  -->
<svg version="1.1" id="Layer_1" xmlns="http://www.w3.org/2000/svg" xmlns:xlink="http://www.w3.org/1999/xlink" x="0px" y="0px"
	 viewBox="0 0 24 24" style="enable-background:new 0 0 24 24;" xml:space="preserve">
<path d="M18,15h-1.6c-0.2,0-0.4,0.2-0.4,0.4v1.1c0,0.2,0.2,0.4,0.4,0.4H18 M18,11h-1.6c-0.2,0-0.4,0.2-0.4,0.4v1.1
	c0,0.2,0.2,0.4,0.4,0.4H18 M20,19h-7.6c-0.2,0-0.4-0.2-0.4-0.4v-1.1c0-0.2,0.2-0.4,0.4-0.4h1.1c0.2,0,0.4-0.2,0.4-0.4v-1.1
	c0-0.2-0.2-0.4-0.4-0.4h-1.1c-0.2,0-0.4-0.2-0.4-0.4v-1.1c0-0.2,0.2-0.4,0.4-0.4h1.1c0.2,0,0.4-0.2,0.4-0.4v-1.1
	c0-0.2-0.2-0.4-0.4-0.4h-1.1c-0.2,0-0.4-0.2-0.4-0.4V9.4C12,9.2,12.2,9,12.4,9H20 M10,7H8.4C8.2,7,8,6.8,8,6.6V5.4
	C8,5.2,8.2,5,8.4,5H10 M10,11H8.4C8.2,11,8,10.8,8,10.6V9.4C8,9.2,8.2,9,8.4,9H10 M10,15H8.4C8.2,15,8,14.8,8,14.6v-1.1
	C8,13.2,8.2,13,8.4,13H10 M10,19H8.4C8.2,19,8,18.8,8,18.6v-1.1C8,17.2,8.2,17,8.4,17H10 M6,7H4.4C4.2,7,4,6.8,4,6.6V5.4
	C4,5.2,4.2,5,4.4,5H6 M6,11H4.4C4.2,11,4,10.8,4,10.6V9.4C4,9.2,4.2,9,4.4,9H6 M6,15H4.4C4.2,15,4,14.8,4,14.6v-1.1
	C4,13.2,4.2,13,4.4,13H6 M6,19H4.4C4.2,19,4,18.8,4,18.6v-1.1C4,17.2,4.2,17,4.4,17H6 M12,6.6V3.4C12,3.2,11.8,3,11.6,3H2.4
	C2.2,3,2,3.2,2,3.4v17.1C2,20.8,2.2,21,2.4,21h19.1c0.2,0,0.4-0.2,0.4-0.4V7.4C22,7.2,21.8,7,21.6,7h-9.1C12.2,7,12,6.8,12,6.6z"/>
</svg>
