<?xml version="1.0" encoding="utf-8"?>
<!-- Generator: Adobe Illustrator 27.6.1, SVG Export Plug-In . SVG Version: 6.00 Build 0)  -->
<svg version="1.1" id="Layer_1" xmlns="http://www.w3.org/2000/svg" xmlns:xlink="http://www.w3.org/1999/xlink" x="0px" y="0px"
	 viewBox="0 0 50 50" style="enable-background:new 0 0 50 50;" xml:space="preserve">
<path d="M42.8,7.8l-3.4,4.8c-0.1,0.1-0.1,0.2-0.1,0.4v3.6c0,0.4-0.3,0.6-0.6,0.6h-2.8c-0.4,0-0.6-0.3-0.6-0.6V13
	c0-0.1,0-0.3-0.1-0.4l-3.4-4.8c-0.3-0.4-0.8-0.4-1.1,0l-3.4,4.8C27.1,12.7,27,12.8,27,13v3.6c0,0.4-0.3,0.6-0.6,0.6h-2.8
	c-0.4,0-0.6-0.3-0.6-0.6V13c0-0.1,0-0.3-0.1-0.4l-3.4-4.8c-0.3-0.4-0.8-0.4-1.1,0l-3.4,4.8c-0.1,0.1-0.1,0.2-0.1,0.4v3.6
	c0,0.4-0.3,0.6-0.6,0.6h-2.8c-0.4,0-0.6-0.3-0.6-0.6V13c0-0.1,0-0.3-0.1-0.4L7.2,7.8c-0.3-0.4-0.8-0.4-1.1,0l-3.4,4.8
	c-0.1,0.1-0.1,0.2-0.1,0.4v30.1c0,0.4,0.3,0.6,0.6,0.6h6.9c0.4,0,0.6-0.3,0.6-0.6v-4.2c0-0.4,0.3-0.6,0.6-0.6h2.8
	c0.4,0,0.6,0.3,0.6,0.6v4.2c0,0.4,0.3,0.6,0.6,0.6h6.9c0.4,0,0.6-0.3,0.6-0.6v-4.2c0-0.4,0.3-0.6,0.6-0.6h2.8c0.4,0,0.6,0.3,0.6,0.6
	v4.2c0,0.4,0.3,0.6,0.6,0.6h6.9c0.4,0,0.6-0.3,0.6-0.6v-4.2c0-0.4,0.3-0.6,0.6-0.6h2.8c0.4,0,0.6,0.3,0.6,0.6v4.2
	c0,0.4,0.3,0.6,0.6,0.6h6.9c0.4,0,0.6-0.3,0.6-0.6V13c0-0.1,0-0.3-0.1-0.4l-3.4-4.8C43.6,7.4,43.1,7.4,42.8,7.8z M10.7,31.3v-7.1
	c0-0.4,0.3-0.6,0.6-0.6h2.8c0.4,0,0.6,0.3,0.6,0.6v7.1c0,0.4-0.3,0.6-0.6,0.6h-2.8C11,31.9,10.7,31.6,10.7,31.3z M23,31.3v-7.1
	c0-0.4,0.3-0.6,0.6-0.6h2.8c0.4,0,0.6,0.3,0.6,0.6v7.1c0,0.4-0.3,0.6-0.6,0.6h-2.8C23.3,31.9,23,31.6,23,31.3z M35.2,31.3v-7.1
	c0-0.4,0.3-0.6,0.6-0.6h2.8c0.4,0,0.6,0.3,0.6,0.6v7.1c0,0.4-0.3,0.6-0.6,0.6h-2.8C35.5,31.9,35.2,31.6,35.2,31.3z"/>
</svg>
