<svg class="w-4 h-4"
	xmlns="http://www.w3.org/2000/svg" viewBox="0 0 50 50" style="enable-background:new 0 0 50 50;" xml:space="preserve">
	<g>
		<path fill="currentColor" d="M14.1,41.3c-0.3,0-0.5,0-0.8-0.1c-4-0.5-12.1-6.5-12.5-6.8C0.1,34,0,33.1,0.5,32.4c0.5-0.7,1.4-0.8,2.1-0.3
		c3.2,2.4,8.8,5.9,11.1,6.2c0.9,0.1,1.6-0.1,1.9-0.7c0.7-1,0.1-3.1-1.4-5.4c-4-6.3-7.2-21.6-7.3-22.2C6.8,9.2,7.3,8.4,8.1,8.2
		c0.8-0.2,1.6,0.4,1.8,1.2c0,0.2,3.2,15.4,6.9,21.2c3,4.7,2.2,7.4,1.4,8.6C17.3,40.6,15.8,41.3,14.1,41.3z"/>
	</g>
	<g>
		<path d="M40,35.5c-0.2,0-0.4,0-0.6,0C36.1,35.1,27.6,31.8,25,30c-0.7-0.5-0.8-1.4-0.4-2.1c0.5-0.7,1.4-0.8,2.1-0.4
		c2.1,1.5,10.2,4.6,12.9,4.9c0.9,0.1,1.6-0.2,2-0.7c0.6-1,0.1-3-1.4-5.4c-4-6.2-7.3-19.6-7.4-20.2c-0.2-0.8,0.3-1.6,1.1-1.8
		c0.8-0.2,1.6,0.3,1.8,1.1c0,0.1,3.3,13.4,7,19.2c2.8,4.4,2.4,7.1,1.5,8.5C43.4,34.7,41.8,35.5,40,35.5z"/>
	</g>
	<g>
		<path d="M5,37.1c-0.7,0-1.3-0.5-1.5-1.2c-0.1-0.8,0.4-1.6,1.2-1.7l25.6-4.5c0.8-0.1,1.6,0.4,1.7,1.2s-0.4,1.6-1.2,1.7L5.3,37.1
		C5.2,37.1,5.1,37.1,5,37.1z"/>
	</g>
	<g>
		<path d="M8.6,12.2c-0.7,0-1.4-0.6-1.5-1.3C7,10.1,7.6,9.3,8.4,9.2l26.1-3.1c0.8-0.1,1.6,0.5,1.7,1.3c0.1,0.8-0.5,1.6-1.3,1.7
		L8.8,12.2C8.7,12.2,8.7,12.2,8.6,12.2z"/>
	</g>
	<g>
		<path d="M13.3,35.6C13.3,35.6,13.3,35.6,13.3,35.6c-0.9,0-1.5-0.7-1.5-1.5l0.4-24c0-0.8,0.7-1.5,1.5-1.5c0.8,0,1.5,0.7,1.5,1.5
		l-0.4,24C14.8,34.9,14.1,35.6,13.3,35.6z"/>
	</g>
	<g>
		<path d="M21.4,34.2C21.4,34.2,21.4,34.2,21.4,34.2c-0.8,0-1.5-0.7-1.5-1.5l0.2-23.5c0-0.8,0.7-1.5,1.5-1.5c0,0,0,0,0,0
		c0.8,0,1.5,0.7,1.5,1.5l-0.2,23.5C22.9,33.5,22.2,34.2,21.4,34.2z"/>
	</g>
	<g>
		<path d="M29.4,32.8c-0.8,0-1.5-0.7-1.5-1.5V8.2c0-0.8,0.7-1.5,1.5-1.5s1.5,0.7,1.5,1.5v23.1C30.9,32.1,30.2,32.8,29.4,32.8z"/>
	</g>
</svg>
