<?xml version="1.0" encoding="utf-8"?>
<!-- Generator: Adobe Illustrator 27.6.1, SVG Export Plug-In . SVG Version: 6.00 Build 0)  -->
<svg version="1.1" id="Layer_1" xmlns="http://www.w3.org/2000/svg" xmlns:xlink="http://www.w3.org/1999/xlink" x="0px" y="0px"
	 viewBox="0 0 50 50" style="enable-background:new 0 0 50 50;" xml:space="preserve">
<g>
	<line x1="3.4" y1="41.9" x2="43.4" y2="41.9"/>
	<path d="M43.4,44h-40c-1.1,0-2-0.9-2-2s0.9-2,2-2h40c1.1,0,2,0.9,2,2S44.5,44,43.4,44z"/>
</g>
<g>
	<line x1="6.6" y1="30.4" x2="46.6" y2="30.4"/>
	<path d="M46.6,32.4h-40c-1.1,0-2-0.9-2-2c0-1.1,0.9-2,2-2h40c1.1,0,2,0.9,2,2C48.6,31.5,47.7,32.4,46.6,32.4z"/>
</g>
<g>
	<path d="M15.9,43.4c-1.1,0-2-0.9-2-2l0-5.9c0-1.3-0.1-3.8,2.5-5.8c2-1.6,13.5-11.2,13.5-11.2l2.6,3.1c0,0-11.5,9.6-13.5,11.2
		c-1,0.9-1,1.6-1,2.7l0,6C17.9,42.5,17,43.4,15.9,43.4z"/>
</g>
<g>
	<path d="M31.2,32.4c-1.1,0-2-0.9-2-2l0-17.3c0-3.3-0.1-3.3-0.9-3.4C25.1,9.5,17,8.9,17,8.9c-1.1-0.1-1.9-1-1.9-2.1
		c0.1-1.1,1-1.9,2.1-1.9c0.3,0,8.2,0.6,11.4,0.9c4.6,0.5,4.6,4.3,4.5,7.4l0,1.1v16.2C33.2,31.5,32.3,32.4,31.2,32.4z"/>
</g>
<g>
	<path d="M26.1,43.4c-1.1,0-2-0.9-2-2l0-5.9c0-1.3-0.1-3.8,2.5-5.8C28.5,28,40,18.4,40,18.4l2.6,3.1c0,0-11.5,9.6-13.5,11.2
		c-1,0.9-1,1.6-1,2.7l0,6C28.1,42.5,27.2,43.4,26.1,43.4z"/>
</g>
<g>
	<g>
		<path d="M41.3,32.4c-1.1,0-2-0.9-2-2V14.3c0-4.2-0.2-4.4-0.9-4.5c-0.5-0.1-1.6-0.3-2.7-0.4C34.6,9.2,33.8,8.1,34,7v0
			c0.2-1.1,1.2-1.8,2.3-1.6c1,0.2,2.2,0.3,2.7,0.4c4.3,0.7,4.3,4.6,4.3,8.3v16.3C43.3,31.5,42.4,32.4,41.3,32.4z"/>
	</g>
</g>
</svg>
