<?xml version="1.0" encoding="utf-8"?>
<!-- Generator: Adobe Illustrator 27.6.1, SVG Export Plug-In . SVG Version: 6.00 Build 0)  -->
<svg version="1.1" id="Layer_1" xmlns="http://www.w3.org/2000/svg" xmlns:xlink="http://www.w3.org/1999/xlink" x="0px" y="0px"
	 viewBox="0 0 24 24" style="enable-background:new 0 0 24 24;" xml:space="preserve">
<path d="M12,3L4.2,8.9C4.1,9,4,9.1,4,9.2v11.4C4,20.8,4.2,21,4.4,21h15.2c0.2,0,0.4-0.2,0.4-0.4V9.2c0-0.1-0.1-0.3-0.2-0.3L12,3
	 M10,10h3.6c0.2,0,0.4,0.2,0.4,0.4v8.2c0,0.2-0.2,0.4-0.4,0.4h-3.2c-0.2,0-0.4-0.2-0.4-0.4V10 M16,10h1.6c0.2,0,0.4,0.2,0.4,0.4v2.2
	c0,0.2-0.2,0.4-0.4,0.4h-1.2c-0.2,0-0.4-0.2-0.4-0.4V10 M15.3,8H9.9C9.5,8,9.4,7.5,9.7,7.2l2.1-1.6c0.1-0.1,0.4-0.1,0.5,0L15.3,8
	 M8,10v2.6C8,12.8,7.8,13,7.6,13H6.4C6.2,13,6,12.8,6,12.6v-2.2C6,10.2,6.2,10,6.4,10H8 M6,15h1.6C7.8,15,8,15.2,8,15.4v3.2
	C8,18.8,7.8,19,7.6,19H6.4C6.2,19,6,18.8,6,18.6V15 M16,18.6v-3.2c0-0.2,0.2-0.4,0.4-0.4h1.2c0.2,0,0.4,0.2,0.4,0.4v3.2
	c0,0.2-0.2,0.4-0.4,0.4h-1.2C16.2,19,16,18.8,16,18.6z"/>
</svg>
