<svg class="w-4 h-4"
	xmlns="http://www.w3.org/2000/svg" viewBox="0 0 50 50" style="enable-background:new 0 0 50 50;" xml:space="preserve">
	<path d="M19.9,10.2c-6.9,0.1-12.3,6-12.3,12.9l0,22.7c0,1.7,1.4,3.1,3.1,3.1h0.1c1.7,0,3.1-1.4,3.1-3.1L14,23c0-3.1,2.2-6,5.3-6.4
	c3.8-0.5,7.1,2.5,7.1,6.1v23.2c0,1.7,1.4,3.1,3.1,3.1h0c1.7,0,3.1-1.4,3.1-3.1V22.7C32.6,15.7,26.9,10.1,19.9,10.2z"/>
	<path d="M26.9,1.1C21.1,2.3,17,7.7,17,13.6l0,22.8c0,1.7,1.4,3.1,3.1,3.1h0c1.7,0,3.1-1.4,3.1-3.1l0-22.9c0-3.1,2.2-6,5.3-6.4
	c3.8-0.5,7.1,2.5,7.1,6.1v23.2c0,1.7,1.4,3.1,3.1,3.1h0c1.7,0,3.1-1.4,3.1-3.1V13.3C42,5.5,34.8-0.6,26.9,1.1z"/>
</svg>
