<svg class="w-4 h-4"
	xmlns="http://www.w3.org/2000/svg" viewBox="0 0 50 50" style="enable-background:new 0 0 50 50;" xml:space="preserve">
	<g>
		<line x1="13.8" y1="14.6" x2="13.8" y2="42.9"/>
		<path d="M13.8,44.4c-1.1,0-1.9-0.7-1.9-1.5V14.6c0-0.8,0.9-1.5,1.9-1.5s1.9,0.7,1.9,1.5v28.3C15.7,43.7,14.8,44.4,13.8,44.4z"/>
	</g>
	<g>
		<g>
			<line x1="7.1" y1="11.6" x2="34.3" y2="18.4"/>
			<path d="M34.3,20.4c-0.2,0-0.3,0-0.5-0.1L6.7,13.5c-1-0.3-1.7-1.3-1.4-2.4c0.3-1,1.3-1.7,2.4-1.4l27.1,6.8c1,0.3,1.7,1.3,1.4,2.4
			C35.9,19.8,35.2,20.4,34.3,20.4z"/>
		</g>
		<g>
			<line x1="7.1" y1="11.6" x2="43.2" y2="20.6"/>
			<path d="M43.2,22.2c-0.1,0-0.3,0-0.4,0l-36-9c-0.8-0.2-1.3-1.1-1.1-1.9c0.2-0.8,1.1-1.3,1.9-1.1l36,9c0.8,0.2,1.3,1.1,1.1,1.9
			C44.5,21.7,43.9,22.2,43.2,22.2z"/>
		</g>
		<g>
			<g>
				<line x1="8.7" y1="2.3" x2="8.7" y2="11.6"/>
				<path d="M8.7,12.4c-0.4,0-0.8-0.3-0.8-0.8V2.3c0-0.4,0.3-0.8,0.8-0.8c0.4,0,0.8,0.3,0.8,0.8v9.3C9.5,12,9.2,12.4,8.7,12.4z"/>
			</g>
			<g>
				<path d="M9.4,5.6v4.7l3.3,0.9C12.8,11.2,9.9,9.8,9.4,5.6z"/>
			</g>
			<g>
				<line x1="8.7" y1="2" x2="25.5" y2="14.6"/>
				<rect x="16.9" y="-2.2" transform="matrix(0.6013 -0.799 0.799 0.6013 0.1592 16.9898)" width="0.4" height="21"/>
			</g>
			<g>
				<line x1="8.4" y1="3.5" x2="25.2" y2="16.1"/>
				<rect x="16.6" y="-0.7" transform="matrix(0.6012 -0.7991 0.7991 0.6012 -1.1502 17.3128)" width="0.4" height="21"/>
			</g>
			<g>
				<line x1="29.7" y1="15.9" x2="48.5" y2="12.7"/>
				<path d="M29.7,16.1c-0.1,0-0.2-0.1-0.2-0.2c0-0.1,0.1-0.2,0.2-0.2l18.8-3.2c0.1,0,0.2,0.1,0.2,0.2c0,0.1-0.1,0.2-0.2,0.2
				L29.7,16.1C29.8,16.1,29.8,16.1,29.7,16.1z"/>
			</g>
			<g>
				<line x1="46.4" y1="13" x2="42.6" y2="19.2"/>
				<rect x="40.9" y="15.9" transform="matrix(0.5265 -0.8502 0.8502 0.5265 7.3826 45.4436)" width="7.3" height="0.4"/>
			</g>
		</g>
	</g>
	<g>
		<g>
			<line x1="7.1" y1="37.2" x2="34.3" y2="44"/>
			<path d="M34.3,46c-0.2,0-0.3,0-0.5-0.1L6.7,39.1c-1-0.3-1.7-1.3-1.4-2.4c0.3-1,1.3-1.7,2.4-1.4l27.1,6.8c1,0.3,1.7,1.3,1.4,2.4
			C35.9,45.4,35.2,46,34.3,46z"/>
		</g>
		<g>
			<line x1="7.1" y1="37.2" x2="43.2" y2="46.3"/>
			<path d="M43.2,47.8c-0.1,0-0.3,0-0.4,0l-36-9c-0.8-0.2-1.3-1.1-1.1-1.9c0.2-0.8,1.1-1.3,1.9-1.1l36,9c0.8,0.2,1.3,1.1,1.1,1.9
			C44.5,47.3,43.9,47.8,43.2,47.8z"/>
		</g>
		<g>
			<g>
				<line x1="8.7" y1="27.9" x2="8.7" y2="37.2"/>
				<path d="M8.7,38c-0.4,0-0.8-0.3-0.8-0.8v-9.3c0-0.4,0.3-0.8,0.8-0.8c0.4,0,0.8,0.3,0.8,0.8v9.3C9.5,37.7,9.2,38,8.7,38z"/>
			</g>
			<g>
				<path d="M9.4,31.2v4.7l3.3,0.9C12.8,36.8,9.9,35.4,9.4,31.2z"/>
			</g>
			<g>
				<line x1="8.7" y1="27.6" x2="25.5" y2="40.3"/>
				<polygon points="25.4,40.4 8.6,27.8 8.8,27.5 25.6,40.1 			"/>
			</g>
			<g>
				<line x1="8.4" y1="29.1" x2="25.2" y2="41.7"/>
				<polygon points="25,41.9 8.3,29.3 8.5,29 25.3,41.6 			"/>
			</g>
			<g>
				<line x1="29.7" y1="41.5" x2="48.5" y2="38.3"/>
				<path d="M29.7,41.7c-0.1,0-0.2-0.1-0.2-0.2c0-0.1,0.1-0.2,0.2-0.2l18.8-3.2c0.1,0,0.2,0.1,0.2,0.2c0,0.1-0.1,0.2-0.2,0.2
				L29.7,41.7C29.8,41.7,29.8,41.7,29.7,41.7z"/>
			</g>
			<g>
				<line x1="46.4" y1="38.6" x2="42.6" y2="44.8"/>
				<polygon points="42.7,44.9 42.4,44.7 46.2,38.5 46.6,38.7 			"/>
			</g>
		</g>
	</g>
</svg>
