<svg class="w-4 h-4"
	xmlns="http://www.w3.org/2000/svg" viewBox="0 0 50 50" style="enable-background:new 0 0 50 50;" xml:space="preserve">
	<g>
		<path d="M19,47.8c-0.7,0-1.2-0.6-1.2-1.2V10.7c0-0.7,0.6-1.2,1.2-1.2s1.2,0.6,1.2,1.2v35.8C20.3,47.2,19.7,47.8,19,47.8z"/>
	</g>
	<g>
		<path d="M18.6,31.6h-7.4c-1.9,0-4.3-1.4-4.6-5.3C6.3,22.7,7.4,19,8,16.9c0.7-2.3,3.1-10.5,3.5-12.1c0.6-2.2,2.2-3,3.4-2.9
		C16.4,2,17,3,17.4,4c0.4,0.9,2.9,6.1,2.9,6.1c0.3,0.7,0,1.5-0.7,1.9s-1.5,0-1.9-0.7c-0.1-0.2-2.5-5.3-2.9-6.2
		c-0.1-0.2-0.1-0.3-0.2-0.3c-0.1,0.1-0.3,0.3-0.4,0.8c-0.5,1.6-2.8,9.9-3.5,12.2C10.1,19.6,9.1,23,9.4,26c0.2,2,1.1,2.7,1.8,2.7h7.4
		c0.8,0,1.4,0.6,1.4,1.4S19.4,31.6,18.6,31.6z"/>
	</g>
	<g>
		<path d="M37.1,47.8c-0.7,0-1.2-0.6-1.2-1.2V10.7c0-0.7,0.6-1.2,1.2-1.2s1.2,0.6,1.2,1.2v35.8C38.4,47.2,37.8,47.8,37.1,47.8z"/>
	</g>
	<g>
		<path d="M36.7,31.6h-7.4c-1.9,0-4.3-1.4-4.6-5.3c-0.3-3.6,0.8-7.3,1.4-9.4c0.7-2.4,3.1-10.8,3.5-12.1c0.6-2.2,2.2-3,3.4-2.9
		C34.5,2,35.1,3,35.5,4c0.4,0.9,2.9,6.1,2.9,6.1c0.3,0.7,0,1.5-0.7,1.9c-0.7,0.3-1.5,0-1.9-0.7c-0.1-0.2-2.5-5.3-2.9-6.2
		c-0.1-0.2-0.1-0.3-0.2-0.3c-0.1,0.1-0.3,0.3-0.4,0.8c-0.4,1.3-2.8,9.8-3.5,12.2c-0.6,1.8-1.6,5.3-1.3,8.3c0.2,2,1.1,2.7,1.8,2.7
		h7.4c0.8,0,1.4,0.6,1.4,1.4S37.5,31.6,36.7,31.6z"/>
	</g>
	<g>
		<g>
			<g>
				<rect x="16.4" y="2.8" width="3.4" height="2"/>
			</g>
			<g>
				<path d="M19.8,5.8c-0.6,0-1-0.4-1-1V2.7c0-0.6,0.4-1,1-1s1,0.4,1,1v2.1C20.8,5.3,20.3,5.8,19.8,5.8z"/>
			</g>
		</g>
		<g>
			<g>
				<rect x="34.6" y="2.8" width="3.4" height="2"/>
			</g>
			<g>
				<path d="M37.9,5.8c-0.6,0-1-0.4-1-1V2.7c0-0.6,0.4-1,1-1s1,0.4,1,1v2.1C38.9,5.3,38.5,5.8,37.9,5.8z"/>
			</g>
		</g>
	</g>
	<g>
		<g>
			<path d="M48.4,25.4H1.6c-0.8,0-1.4-0.6-1.4-1.4s0.6-1.4,1.4-1.4h46.7c0.8,0,1.4,0.6,1.4,1.4S49.1,25.4,48.4,25.4z"/>
		</g>
		<g>
			<path d="M48.4,36.9H1.6c-0.8,0-1.4-0.6-1.4-1.4S0.9,34,1.6,34h46.7c0.8,0,1.4,0.6,1.4,1.4S49.1,36.9,48.4,36.9z"/>
		</g>
		<g>
			<rect x="2.8" y="24" width="2.8" height="11.5"/>
		</g>
		<g>
			<rect x="44.5" y="23.7" width="2.8" height="11.5"/>
		</g>
	</g>
</svg>
