<svg class="w-4 h-4"
	xmlns="http://www.w3.org/2000/svg" viewBox="0 0 50 50" style="enable-background:new 0 0 50 50;" xml:space="preserve">
	<g>
		<g>
			<path d="M25,37.4c-5,0-9.1-4.1-9.1-9.1c0-1.4,1.1-2.5,2.5-2.5s2.5,1.1,2.5,2.5c0,2.3,1.8,4.1,4.1,4.1c1.4,0,2.5,1.1,2.5,2.5
			S26.4,37.4,25,37.4z"/>
		</g>
		<g>
			<path d="M5.2,42.9c-1.4,0-2.5-1.1-2.5-2.5V18.5c0-5,4.1-9.1,9.1-9.1s9.1,4.1,9.1,9.1v9.8c0,1.4-1.1,2.5-2.5,2.5s-2.5-1.1-2.5-2.5
			v-9.8c0-2.2-1.9-4.1-4.1-4.1c-2.3,0-4.1,1.8-4.1,4.1v21.9C7.7,41.8,6.6,42.9,5.2,42.9z"/>
		</g>
		<g>
			<path d="M44.8,42.9c-1.4,0-2.5-1.1-2.5-2.5V18.5c0-2.3-1.8-4.1-4.1-4.1s-4.1,1.8-4.1,4.1v9.8c0,1.4-1.1,2.5-2.5,2.5
			s-2.5-1.1-2.5-2.5v-9.8c0-5,4.1-9.1,9.1-9.1c5,0,9.1,4.1,9.1,9.1v21.9C47.3,41.8,46.2,42.9,44.8,42.9z"/>
		</g>
		<g>
			<path d="M25,37.4c-1.4,0-2.5-1.1-2.5-2.5s1.1-2.5,2.5-2.5c2.3,0,4.1-1.8,4.1-4.1c0-1.4,1.1-2.5,2.5-2.5s2.5,1.1,2.5,2.5
			C34.1,33.3,30,37.4,25,37.4z"/>
		</g>
	</g>
</svg>
