<?xml version="1.0" encoding="utf-8"?>
<!-- Generator: Adobe Illustrator 27.6.1, SVG Export Plug-In . SVG Version: 6.00 Build 0)  -->
<svg version="1.1" id="Layer_1" xmlns="http://www.w3.org/2000/svg" xmlns:xlink="http://www.w3.org/1999/xlink" x="0px" y="0px"
	 viewBox="0 0 50 50" style="enable-background:new 0 0 50 50;" xml:space="preserve">
<g>
	<path d="M4,49.3c-1.2,0-2.2-1-2.2-2.2V19.5c0-2.8,2.1-5.2,4.9-5.5l0.9-0.1v-3c0-2.8,2.1-5.1,4.9-5.5l29.7-2.8
		c1.5-0.2,3.1,0.3,4.2,1.4c1.2,1,1.8,2.5,1.8,4.1v31.8c0,1.2-1,2.2-2.2,2.2s-2.2-1-2.2-2.2V8c0-0.4-0.2-0.6-0.3-0.7
		C43.3,7.2,43,7,42.6,7.1L12.9,9.9c-0.5,0.1-0.8,0.5-0.8,1v2.6l23.7-2.3c1.5-0.2,3.1,0.3,4.2,1.4c1.2,1,1.8,2.5,1.8,4.1v4.1
		c0,2.8-2.1,5.1-4.9,5.5l-23.3,2.3c-1.5,0.2-3.1-0.3-4.2-1.4c-1.2-1-1.8-2.5-1.8-4.1v-4.7l-0.4,0c-0.5,0.1-0.9,0.5-0.9,1V47
		C6.3,48.3,5.3,49.3,4,49.3z M12.1,18v5.1c0,0.4,0.2,0.6,0.3,0.7c0.1,0.1,0.4,0.3,0.8,0.2l23.3-2.3c0.5-0.1,0.9-0.5,0.9-1v-4.1
		c0-0.4-0.2-0.6-0.3-0.7s-0.4-0.3-0.8-0.2L12.1,18z"/>
</g>
</svg>
