<svg xmlns="http://www.w3.org/2000/svg" version="1.1" xmlns:xlink="http://www.w3.org/1999/xlink" xmlns:svgjs="http://svgjs.com/svgjs" width="1000" height="1000"><rect width="1000" height="1000" rx="150" ry="150" fill="#fce047"></rect><g transform="matrix(3.5,0,0,3.5,156.25000953674316,142.25000381469727)"><svg xmlns="http://www.w3.org/2000/svg" version="1.1" xmlns:xlink="http://www.w3.org/1999/xlink" xmlns:svgjs="http://svgjs.com/svgjs" width="200" height="200"><svg version="1.1" id="Layer_1" xmlns="http://www.w3.org/2000/svg" xmlns:xlink="http://www.w3.org/1999/xlink" x="0px" y="0px" viewBox="0 0 200 200" style="enable-background:new 0 0 200 200;" xml:space="preserve">
<style type="text/css">
	.st0{fill:#131313;}
</style>
<rect x="71.9" y="72.8" class="st0" width="21" height="70.2"></rect>
<rect x="142.7" y="72.8" class="st0" width="21" height="70.2"></rect>
<path class="st0" d="M117.8,47.9c13.8,0,24.9,11.1,24.9,24.9h21c0-25.4-20.6-46-46-46s-45.7,20.7-45.7,46h21
	C92.8,59,104,47.9,117.8,47.9z"></path>
<ellipse class="st0" cx="82.3" cy="142.9" rx="10.5" ry="5.6"></ellipse>
<ellipse class="st0" cx="153.2" cy="142.9" rx="10.5" ry="5.6"></ellipse>
<g>
	<rect x="31.3" y="103.8" class="st0" width="21" height="70.2"></rect>
	<rect x="102.2" y="103.8" class="st0" width="21" height="70.2"></rect>
	<path class="st0" d="M77.3,79.2c13.8,0,24.9,11.1,24.9,24.9h20.9c0-25.4-20.6-45.9-45.9-45.9s-45.9,20.6-45.9,45.9h20.9
		C52.5,90.4,63.6,79.2,77.3,79.2z"></path>
	<ellipse class="st0" cx="41.8" cy="173.8" rx="10.5" ry="5.6"></ellipse>
	<ellipse class="st0" cx="112.6" cy="173.8" rx="10.5" ry="5.6"></ellipse>
</g>
</svg></svg></g></svg>