<?xml version="1.0" standalone="no"?>
<!DOCTYPE svg PUBLIC "-//W3C//DTD SVG 20010904//EN"
 "http://www.w3.org/TR/2001/REC-SVG-20010904/DTD/svg10.dtd">
<svg version="1.0" xmlns="http://www.w3.org/2000/svg"
 width="700.000000pt" height="700.000000pt" viewBox="0 0 700.000000 700.000000"
 preserveAspectRatio="xMidYMid meet">
<metadata>
Created by potrace 1.14, written by Peter Selinger 2001-2017
</metadata>
<g transform="translate(0.000000,700.000000) scale(0.100000,-0.100000)"
fill="#000000" stroke="none">
<path d="M3930 6050 c-601 -84 -1070 -448 -1296 -1005 l-32 -80 -48 -8 c-272
-44 -385 -77 -550 -157 -485 -235 -821 -700 -893 -1233 -7 -52 -11 -519 -11
-1378 0 -1451 -7 -1332 72 -1389 93 -67 297 -96 438 -61 76 19 167 68 193 105
l22 31 5 1315 5 1315 23 72 c49 160 122 284 232 393 102 102 244 189 362 220
21 6 46 14 54 17 12 5 14 -140 14 -1122 -1 -1243 -6 -1147 62 -1199 179 -135
586 -92 654 70 12 28 14 210 14 1054 0 609 4 1020 9 1020 20 0 159 -163 200
-235 54 -95 96 -216 111 -319 7 -54 10 -492 10 -1339 -1 -1406 -7 -1280 72
-1337 181 -132 577 -84 644 77 12 27 14 254 14 1277 0 1247 -3 1360 -36 1526
-95 468 -413 886 -841 1105 -51 26 -93 49 -93 52 0 14 64 115 107 168 114 141
296 254 477 295 83 19 116 22 234 18 113 -5 152 -10 222 -33 148 -48 232 -98
344 -204 124 -119 203 -254 248 -423 l22 -83 3 -1309 3 -1309 26 -34 c63 -83
253 -135 415 -113 102 14 180 43 225 83 69 60 64 -44 64 1354 0 1262 -3 1371
-36 1531 -91 442 -380 842 -770 1066 -160 92 -342 159 -524 192 -101 19 -378
27 -470 14z"/>
</g>
</svg>
